<?xml version="1.0" encoding="utf-8"?>
<svg fill="#00BFFF" width="32px" height="32px" viewBox="0 0 65.375 65.375" xmlns="http://www.w3.org/2000/svg">
<path d="M20.761,38.521c0,1.611-1.306,2.917-2.917,2.917c-1.611,0-2.917-1.306-2.917-2.917
	c0-1.611,1.306-2.917,2.917-2.917C19.455,35.604,20.761,36.91,20.761,38.521z M52.733,20.771l0.729-9.542H11.913l0.729,9.542H52.733
	z M65.375,14.146v37.083c0,1.611-1.306,2.917-2.917,2.917H2.917C1.306,54.146,0,52.84,0,51.229V14.146
	c0-1.611,1.306-2.917,2.917-2.917h5.988l0.852,11.156c0.06,0.782,0.711,1.386,1.496,1.386h42.87c0.784,0,1.436-0.604,1.496-1.386
	l0.852-11.156h5.988C64.069,11.229,65.375,12.535,65.375,14.146z M55.648,34.82c0-2.491-2.038-4.529-4.529-4.529H14.256
	c-2.491,0-4.529,2.038-4.529,4.529v7.401c0,2.491,2.038,4.529,4.529,4.529h36.863c2.491,0,4.529-2.038,4.529-4.529V34.82z
	 M47.53,35.604c-1.611,0-2.917,1.306-2.917,2.917c0,1.611,1.306,2.917,2.917,2.917c1.611,0,2.917-1.306,2.917-2.917
	C50.447,36.91,49.141,35.604,47.53,35.604z"/>
</svg>