<svg xmlns="http://www.w3.org/2000/svg"  viewBox="0 0 16 16" width="32px" height="32px"><path fill="white" d="M 2.5 3 C 1.675781 3 1 3.675781 1 4.5 L 1 11.5 C 1 12.320313 1.675781 13 2.5 13 L 13.5 13 C 14.324219 13 15 12.324219 15 11.5 L 15 4.5 C 15 3.675781 14.320313 3 13.5 3 Z M 2.5 4 L 13.5 4 C 13.78125 4 14 4.21875 14 4.5 L 14 11.5 C 14 11.78125 13.78125 12 13.5 12 L 2.5 12 C 2.21875 12 2 11.78125 2 11.5 L 2 4.5 C 2 4.214844 2.214844 4 2.5 4 Z M 2 6.007813 C 2 6.007813 3.777344 6.648438 4.195313 8.21875 L 3.890625 6.402344 C 3.890625 6.402344 3.753906 6.007813 3.398438 6.007813 Z M 5.128906 6 L 4.304688 8.851563 C 4.304688 8.851563 4.257813 8.605469 4.234375 8.453125 C 3.765625 7.214844 3.003906 6.761719 3.003906 6.761719 L 3.726563 10 L 4.71875 10 L 6.09375 6 Z M 9.164063 6 C 8.21875 6 7.726563 6.523438 7.726563 7.1875 C 7.726563 8.390625 8.976563 8.230469 8.976563 8.84375 C 8.976563 8.949219 8.90625 9.195313 8.382813 9.195313 C 7.863281 9.195313 7.519531 8.972656 7.519531 8.972656 L 7.363281 9.78125 C 7.363281 9.78125 7.695313 10 8.34375 10 C 8.988281 10 9.890625 9.441406 9.890625 8.632813 C 9.886719 7.667969 8.632813 7.597656 8.632813 7.164063 C 8.632813 6.945313 8.792969 6.78125 9.242188 6.78125 C 9.53125 6.78125 9.867188 7.027344 9.867188 7.027344 L 10.011719 6.1875 C 10.011719 6.1875 9.585938 6 9.164063 6 Z M 6.449219 6 L 5.914063 10 L 6.816406 10 L 7.363281 6 Z M 11.351563 6 L 9.871094 10 L 10.765625 10 L 10.953125 9.429688 L 12.082031 9.429688 L 12.179688 10 L 13 10 L 12.300781 6 Z M 11.691406 7.15625 L 11.953125 8.664063 L 11.203125 8.664063 Z"/></svg>